<svg width="25" height="24" viewBox="0 0 25 24" fill="none" xmlns="http://www.w3.org/2000/svg">
<path d="M4 4.65625C4 5.21875 3.80208 5.69792 3.40625 6.09375C3.01042 6.46875 2.54167 6.65625 2 6.65625C1.45833 6.65625 0.989583 6.46875 0.59375 6.09375C0.197917 5.69792 0 5.21875 0 4.65625C0 4.11458 0.197917 3.64583 0.59375 3.25C0.989583 2.85417 1.45833 2.65625 2 2.65625C2.54167 2.65625 3.01042 2.85417 3.40625 3.25C3.80208 3.64583 4 4.11458 4 4.65625ZM2 12C1.8125 12 1.65625 12.0729 1.53125 12.2188C1.40625 12.3438 1.34375 12.4896 1.34375 12.6562V20.6562C1.34375 20.8438 1.40625 21.0104 1.53125 21.1562C1.65625 21.2812 1.8125 21.3438 2 21.3438C2.1875 21.3438 2.34375 21.2812 2.46875 21.1562C2.59375 21.0104 2.65625 20.8438 2.65625 20.6562V12.6562C2.65625 12.4896 2.59375 12.3438 2.46875 12.2188C2.34375 12.0729 2.1875 12 2 12ZM11.9062 0H10.6562C10.3021 0 9.98958 0.135417 9.71875 0.40625C9.46875 0.65625 9.34375 0.96875 9.34375 1.34375V22.6562C9.34375 23.0312 9.46875 23.3542 9.71875 23.625C9.98958 23.875 10.3021 24 10.6562 24H12C13.6458 24 15.1979 23.6875 16.6562 23.0625C18.1146 22.4375 19.3854 21.5938 20.4688 20.5312C21.5521 19.4479 22.4062 18.1771 23.0312 16.7188C23.6562 15.2812 23.9792 13.7292 24 12.0625C24.0208 10.4167 23.7083 8.85417 23.0625 7.375C22.4375 5.91667 21.5729 4.64583 20.4688 3.5625C19.3646 2.45833 18.0833 1.59375 16.625 0.96875C15.1458 0.322917 13.5729 0 11.9062 0ZM12 22.6562C11.7708 22.6562 11.5417 22.6562 11.3125 22.6562C11.1042 22.6354 10.8854 22.6146 10.6562 22.5938V1.40625C10.8854 1.38542 11.1042 1.375 11.3125 1.375C11.5417 1.35417 11.7708 1.34375 12 1.34375C13.4792 1.34375 14.8646 1.61458 16.1562 2.15625C17.4479 2.71875 18.5729 3.48958 19.5312 4.46875C20.5104 5.42708 21.2812 6.55208 21.8438 7.84375C22.3854 9.13542 22.6562 10.5208 22.6562 12C22.6562 13.4792 22.3854 14.8646 21.8438 16.1562C21.2812 17.4479 20.5104 18.5833 19.5312 19.5625C18.5729 20.5208 17.4479 21.2812 16.1562 21.8438C14.8646 22.3854 13.4792 22.6562 12 22.6562Z" fill="#231D19"/>
</svg>
